<?xml version="1.0" encoding="UTF-8"?>
<svg width="1080" height="2400" viewBox="0 0 1080 2400" fill="none" xmlns="http://www.w3.org/2000/svg">
  <defs>
    <!-- Solid background (uniform light blue) -->
    <style>
      .wave1 { opacity: 0.10; stroke: #BFE3F4; stroke-width: 6; stroke-linecap: round; }
      .wave2 { opacity: 0.08; stroke: #BFE3F4; stroke-width: 4; stroke-linecap: round; }
      .isoFill1 { fill: #BFE3F4; }
      .isoFill2 { fill: #B1D8EC; }
      .isoFill3 { fill: #CFEAF7; }
    </style>

    <!-- Bottom mist fade (same base tone, not corner glow) -->
    <linearGradient id="bottomMistBlue" x1="0" y1="1860" x2="0" y2="2400" gradientUnits="userSpaceOnUse">
      <stop offset="0" stop-color="#EEF7FF" stop-opacity="0"/>
      <stop offset="1" stop-color="#EEF7FF" stop-opacity="0.85"/>
    </linearGradient>
  </defs>

  <!-- Base solid color -->
  <rect width="1080" height="2400" fill="#EEF7FF"/>

  <!-- Subtle waves -->
  <path d="M-40 520C160 460 340 460 540 520C760 588 920 588 1120 520" class="wave1"/>
  <path d="M-60 600C160 540 350 540 560 600C780 664 930 664 1140 600" class="wave2"/>

  <path d="M-40 1040C160 980 340 980 540 1040C760 1108 920 1108 1120 1040" class="wave1"/>
  <path d="M-60 1120C160 1060 350 1060 560 1120C780 1184 930 1184 1140 1120" class="wave2"/>

  <!-- Very faint isometric illustration (monochrome in blue tone) -->
  <g opacity="0.10">
    <path d="M90 1960L720 1820L1030 1960L400 2100L90 1960Z" class="isoFill1"/>
    <path d="M90 1960L400 2100L400 2145L90 2005V1960Z" class="isoFill2"/>
    <path d="M400 2100L1030 1960V2005L400 2145V2100Z" class="isoFill3"/>

    <path d="M230 1900L450 1852L610 1932L390 1980L230 1900Z" class="isoFill3"/>
    <path d="M230 1900L390 1980V2050L230 1970V1900Z" class="isoFill2"/>
    <path d="M390 1980L610 1932V2002L390 2050V1980Z" class="isoFill1"/>

    <path d="M640 1896L770 1868L905 1940L775 1968L640 1896Z" class="isoFill3"/>
    <path d="M640 1896L775 1968V2034L640 1962V1896Z" class="isoFill2"/>
    <path d="M775 1968L905 1940V2006L775 2034V1968Z" class="isoFill1"/>
  </g>

  <rect y="1860" width="1080" height="540" fill="url(#bottomMistBlue)"/>
</svg>
